<?xml version="1.0" encoding="UTF-8" standalone="no"?>
<!-- Created with Inkscape (http://www.inkscape.org/) -->

<svg
   width="1024mm"
   height="128mm"
   viewBox="0 0 1024 128"
   version="1.1"
   id="svg1"
   inkscape:version="1.4.2 (f4327f4, 2025-05-13)"
   sodipodi:docname="drawing.svg"
   inkscape:export-filename="drawing.png"
   inkscape:export-xdpi="96"
   inkscape:export-ydpi="96"
   xmlns:inkscape="http://www.inkscape.org/namespaces/inkscape"
   xmlns:sodipodi="http://sodipodi.sourceforge.net/DTD/sodipodi-0.dtd"
   xmlns="http://www.w3.org/2000/svg"
   xmlns:svg="http://www.w3.org/2000/svg">
  <sodipodi:namedview
     id="namedview1"
     pagecolor="#ffffff"
     bordercolor="#000000"
     borderopacity="0.25"
     inkscape:showpageshadow="2"
     inkscape:pageopacity="0.0"
     inkscape:pagecheckerboard="0"
     inkscape:deskcolor="#d1d1d1"
     inkscape:document-units="mm"
     inkscape:zoom="0.25417602"
     inkscape:cx="2405.8131"
     inkscape:cy="-241.95831"
     inkscape:window-width="1920"
     inkscape:window-height="1009"
     inkscape:window-x="-8"
     inkscape:window-y="-8"
     inkscape:window-maximized="1"
     inkscape:current-layer="layer1"
     showgrid="false" />
  <defs
     id="defs1">
    <rect
       x="318.6768"
       y="137.69985"
       width="3092.3452"
       height="251.79401"
       id="rect5" />
    <rect
       x="196.71407"
       y="145.56841"
       width="3442.4963"
       height="291.13683"
       id="rect4" />
    <rect
       x="350.15105"
       y="125.89701"
       width="3253.6508"
       height="310.80823"
       id="rect3" />
    <rect
       x="444.5738"
       y="129.83129"
       width="3135.6223"
       height="224.25404"
       id="rect2" />
  </defs>
  <g
     inkscape:label="Layer 1"
     inkscape:groupmode="layer"
     id="layer1">
    <rect
       style="fill:#b3b3b3;stroke-width:0.256784"
       id="rect1"
       width="1017.0034"
       height="128.03627"
       x="4.1637812"
       y="-4.8954797e-07"
       ry="42.678753" />
    <text
       xml:space="preserve"
       transform="scale(0.26458333)"
       id="text1"
       style="fill:#000000;text-orientation:auto;text-align:start;writing-mode:lr-tb;direction:ltr;white-space:pre;shape-inside:url(#rect2)" />
    <text
       xml:space="preserve"
       transform="scale(0.26458333)"
       id="text2"
       style="text-align:start;writing-mode:lr-tb;direction:ltr;white-space:pre;shape-inside:url(#rect3);fill:#000000" />
    <text
       xml:space="preserve"
       transform="scale(0.26458333)"
       id="text3"
       style="text-align:start;writing-mode:lr-tb;direction:ltr;white-space:pre;shape-inside:url(#rect4);fill:#000000"><tspan
         x="196.71484"
         y="156.51632"
         id="tspan1">L</tspan></text>
    <text
       xml:space="preserve"
       transform="scale(0.26458333)"
       id="text4"
       style="text-align:start;writing-mode:lr-tb;direction:ltr;white-space:pre;shape-inside:url(#rect5);fill:#000000;font-size:266.66667003px"><tspan
         x="318.67773"
         y="632.78252"
         id="tspan2">L</tspan></text>
    <text
       xml:space="preserve"
       style="font-size:70.5556px;text-align:start;writing-mode:lr-tb;direction:ltr;text-anchor:start;fill:#000000;stroke-width:0.264583"
       x="256.07254"
       y="68.702385"
       id="text6"><tspan
         sodipodi:role="line"
         id="tspan6"
         style="stroke-width:0.264583"
         x="256.07254"
         y="68.702385">Luca Spruytte</tspan></text>
    <circle
       id="path8"
       style="fill:#000000;stroke:#000000;stroke-width:0.264583"
       cx="104.09453"
       cy="82.234673"
       r="0.13865289" />
    <path
       style="fill:#f9f9f9;stroke-width:0.264583"
       id="path15"
       d="m 78.939789,105.07683 c 12.041922,-5.304615 25.299231,-6.274752 38.237081,-7.506017 9.93856,-0.506381 19.94364,-1.751968 29.91211,-1.146088 5.30542,0.322461 7.32744,0.850244 12.51278,1.797603 6.29041,1.167572 12.15912,3.925352 18.34789,5.435712 2.82155,0.68859 5.68136,1.23161 8.55544,1.64992 10.2331,1.4894 12.08816,1.15814 22.82399,1.34813 30.49997,-0.78999 60.75017,-5.26511 90.987,-9.015247 12.8625,-1.038554 25.81034,-4.020836 38.78408,-2.861202 5.27592,0.47158 6.3229,1.057018 11.19526,2.557071 1.58726,0.644147 3.12406,1.430298 4.76181,1.932437 2.44499,0.749651 4.95665,1.265541 7.45466,1.813201 3.00252,0.65826 5.99676,1.39534 9.0433,1.80377 10.00969,1.34196 23.86108,1.7769 33.4682,2.1296 7.86464,0.28873 15.73263,0.47661 23.59896,0.71491 20.89375,0.77495 41.81046,0.98118 62.69646,1.9824 8.64222,0.41429 15.83804,0.72861 24.2394,2.24113 2.57522,0.46363 5.08609,1.23212 7.62913,1.84818 1.90595,0.74945 3.85678,1.39346 5.71783,2.24834 5.33601,2.45115 4.62772,3.0979 10.38707,5.00906 4.23674,1.40591 13.4112,3.29608 17.42511,3.35405 5.7562,0.0831 11.49181,-0.70811 17.23769,-1.06217 29.09956,-2.89436 57.88628,-8.11472 86.73888,-12.74561 5.29955,-0.85058 26.65388,-4.16167 32.87604,-5.12818 4.14123,-0.0305 8.28482,-0.23512 12.42367,-0.0916 7.17174,0.24876 14.72591,1.39345 21.84746,2.18787 11.80298,1.31664 23.60568,2.16967 35.45636,2.91089 21.76651,1.42029 43.51555,-0.66752 65.25009,-1.59035 4.17237,-0.33413 8.29694,0.17503 12.43153,0.59 1.04764,0.10515 2.10166,0.3995 3.14695,0.27292 2.6003,-0.3149 5.13638,-1.03078 7.69615,-1.58603 4.10387,-0.89018 8.19605,-1.83341 12.29405,-2.75011 22.57123,-4.768091 44.77554,-11.048509 67.12669,-16.717886 0,0 -13.68544,-9.407454 -13.68544,-9.407454 v 0 c -22.3017,6.262815 -44.60689,12.728083 -67.54693,16.276151 -4.36692,0.691351 -8.71413,1.521682 -13.10082,2.074047 -2.75452,0.346848 -5.53048,0.542092 -8.30561,0.621424 -1.06738,0.03052 -2.12508,-0.21481 -3.19003,-0.292793 -3.94928,-0.289189 -7.90797,-0.162345 -11.85169,0.172064 -21.34278,1.731658 -42.76395,3.685312 -64.18768,2.08103 -11.93813,-0.836269 -23.80612,-1.891379 -35.70179,-3.196754 -7.08925,-0.777941 -14.5919,-1.801625 -21.74311,-1.800638 -4.0354,5.29e-4 -8.06017,0.414245 -12.09025,0.621369 -17.38328,3.235216 -34.77154,6.41168 -52.20287,9.38069 -22.12898,3.76914 -44.31308,7.49818 -66.77109,8.65959 -6.11553,-0.0527 -12.24728,0.2901 -18.34661,-0.1581 -4.94324,-0.36325 -12.98125,-2.46579 -17.88181,-4.29045 -6.76265,-2.51798 -4.05249,-2.33506 -10.47023,-4.9021 -1.82096,-0.72836 -3.72649,-1.22429 -5.58974,-1.83643 -2.43697,-0.45927 -4.85175,-1.058148 -7.31094,-1.377796 -7.76518,-1.009322 -15.20714,-1.052949 -23.06066,-1.190514 -20.51354,-0.359323 -41.03793,-0.243523 -61.54007,-1.167405 -17.11444,-0.860166 -28.164,-1.153393 -44.90953,-2.930173 -12.41245,-1.317019 -24.74336,-3.582493 -36.39116,-8.182242 -4.98904,-1.242783 -5.8542,-1.711699 -11.18222,-1.93706 -12.67,-0.535908 -25.14457,2.690715 -37.66513,3.969734 -30.22282,4.237969 -60.59487,8.452821 -91.17133,8.540295 -10.7341,-0.478258 -13.0105,-0.190492 -23.23851,-2.053849 -9.35454,-1.704224 -18.10211,-5.473454 -27.4046,-7.368363 -5.41075,-0.860454 -7.10134,-1.290436 -12.62806,-1.509675 -9.88649,-0.392187 -19.75866,0.995611 -29.60251,1.609661 -13.456003,1.386933 -27.067633,2.452854 -39.93337,6.929744 z" />
  </g>
</svg>
