<?xml version="1.0" encoding="UTF-8" standalone="no"?>
<!-- Created with Inkscape (http://www.inkscape.org/) -->

<svg
   width="355mm"
   height="210mm"
   viewBox="0 0 355 210"
   version="1.1"
   id="svg1"
   xml:space="preserve"
   inkscape:version="1.4.2 (f4327f4, 2025-05-13)"
   sodipodi:docname="Nature.svg"
   inkscape:export-filename="Nature.png"
   inkscape:export-xdpi="96"
   inkscape:export-ydpi="96"
   xmlns:inkscape="http://www.inkscape.org/namespaces/inkscape"
   xmlns:sodipodi="http://sodipodi.sourceforge.net/DTD/sodipodi-0.dtd"
   xmlns="http://www.w3.org/2000/svg"
   xmlns:svg="http://www.w3.org/2000/svg"><sodipodi:namedview
     id="namedview1"
     pagecolor="#ffffff"
     bordercolor="#000000"
     borderopacity="0.25"
     inkscape:showpageshadow="2"
     inkscape:pageopacity="0.0"
     inkscape:pagecheckerboard="0"
     inkscape:deskcolor="#d1d1d1"
     inkscape:document-units="mm"
     inkscape:zoom="0.5"
     inkscape:cx="463"
     inkscape:cy="89"
     inkscape:window-width="1920"
     inkscape:window-height="1009"
     inkscape:window-x="-8"
     inkscape:window-y="-8"
     inkscape:window-maximized="1"
     inkscape:current-layer="layer1"
     showgrid="false" /><defs
     id="defs1" /><g
     inkscape:label="Layer 1"
     inkscape:groupmode="layer"
     id="layer1"><rect
       style="fill:#aaccff;fill-opacity:1;stroke-width:0.247432"
       id="rect10"
       width="355.85367"
       height="102.92079"
       x="-0.5025748"
       y="-0.33200908" /><path
       style="fill:#d2a589;fill-opacity:1;stroke-width:0.264583"
       d="m 235.7915,152.24694 -4.94449,3.64331 0.59097,6.35274 20.22794,16.28782 13.27205,12.75158 8.32757,18.99725 H 204.3029 c 0,0 -3.6433,-21.07914 -3.6433,-22.64056 0,-1.56142 1.04094,-11.19016 1.04094,-11.19016 l -2.34213,-3.12284 0.26024,-8.58779 5.46496,-5.46497 6.24567,-4.68425 6.24568,-2.34213 21.07914,-8.32756 7.67957,0.0165 z"
       id="path1"
       sodipodi:nodetypes="cccccccsccccccccc" /><path
       style="fill:#256a24;fill-opacity:1;stroke-width:0.264583"
       d="m 236.30328,150.15636 8.06733,-5.20473 6.50591,-3.38307 9.10827,-1.30119 13.27206,-1.56141 9.62874,0.52047 12.75157,-0.52047 11.71064,-3.38307 5.20473,-2.86261 12.2311,-0.26023 6.50592,0.52047 6.76614,-1.82165 11.97086,1.04094 5.20472,-2.60236 0.26025,81.19373 -83.27562,-0.52047 -9.88899,-17.69607 -16.91536,-18.21654 -13.79252,-11.4504 -0.78071,-1.04095 -0.26024,-6.24567 z"
       id="path2"
       sodipodi:nodetypes="cccccccccccccccccccccc" /><path
       style="fill:#3a7c3c;fill-opacity:1;stroke-width:0.264583"
       d="m 205.64508,210.23872 -2.34213,-14.83347 -1.30118,-4.94449 0.52047,-13.53229 0.52047,-5.98543 0.78071,-7.02639 7.02638,-8.84803 14.05276,-4.94449 8.5878,-2.8626 5.98544,-0.78071 7.19765,-2.63606 -0.69174,0.29393 1.87308,-0.98547 -19.04868,-0.83618 -8.06733,0.52047 -7.28662,-1.30118 -9.62874,3.90354 -15.35394,4.68426 -14.05276,11.71063 -12.23111,1.82166 -16.65512,10.14921 -34.3512,12.49135 -46.061834,11.71063 -24.722451,11.97087 z"
       id="path3"
       sodipodi:nodetypes="ccccccccccccccccccccccccc" /><path
       style="fill:#6ea152;fill-opacity:1;stroke-width:0.264583"
       d="m 155.63002,159.21128 -11.20542,5.51849 -22.10483,3.06931 -16.91536,6.5059 -29.92718,2.60237 -18.47678,3.12283 -29.666941,11.4504 -26.0775533,0.32693 -1.2759877,0.016 0.01653645,18.17043 40.33398555,0.0165 23.69634,-10.98304 48.14373,-12.49134 33.05001,-12.23111 15.87442,-9.3685 z"
       id="path4"
       sodipodi:nodetypes="cccccccccccccccc" /><path
       style="fill:#4e8e51;fill-opacity:1;stroke-width:0.264583"
       d="m 54.564704,180.97849 -3.979765,-6.40457 -7.959833,-6.09663 -7.836248,-4.84549 -6.584239,-3.89135 -1.04095,-1.04095 v -2.8626 l 3.12284,-2.34212 2.60236,-1.56142 1.04095,-4.16378 -1.400409,-4.55197 -1.644092,-5.30394 -7.104719,-2.11496 -6.24567,-3.38308 -4.68425,-4.68425 -5.2047263,-2.34213 -7.67045091,0.29331 -0.0086937,66.79805 26.41616091,0.30985 23.253037,-9.33829 z"
       id="path5"
       sodipodi:nodetypes="ccccccccccccccccccccc" /><path
       style="fill:#4e8e51;fill-opacity:1;stroke-width:0.264583"
       d="m 144.34237,164.76095 2.97731,-7.82785 4.78439,-2.94423 3.68029,-15.45725 5.88848,-7.3606 8.09666,3.31227 10.30483,-0.36803 3.68029,-8.46468 7.3606,-3.31227 4.06201,-1.32843 4.68426,3.12284 7.28661,-1.56142 4.42402,1.30118 2.08189,1.82166 4.42402,-3.12284 3.90354,-0.26023 5.46497,7.54685 9.62874,13.27205 -17.43583,0.52047 -4.68426,-1.5674 -10.92992,3.38906 -15.35394,4.68425 -13.79253,12.49134 -14.313,2.34213 z"
       id="path6"
       sodipodi:nodetypes="ccccccccccccccccccccccccc" /><path
       style="fill:#4e8e51;fill-opacity:1;stroke-width:0.264583"
       d="m 225.36465,131.41934 15.35394,-6.24567 8.18918,3.50544 -0.36958,14.49443 -11.72314,-0.0231 z"
       id="path7"
       sodipodi:nodetypes="cccccc" /><path
       style="fill:#4e8e51;fill-opacity:1;stroke-width:0.264583"
       d="m 248.27736,143.19673 0.31546,-14.56917 5.65802,-0.33106 5.46496,-8.06732 8.32758,-2.60237 6.24565,-2.86259 7.02638,0.26023 9.88898,8.84804 12.23111,-5.46496 8.32758,2.60236 5.98543,-2.8626 3.12282,2.08189 7.28662,-3.90355 5.46497,0.26024 6.76614,-4.68425 h 4.42402 l 10.17011,6.24567 0.23935,14.313 -8.58781,0.26023 -6.24567,-0.78071 -9.88899,1.04095 -17.17558,0.52047 -5.72522,1.82166 -9.88897,3.38306 -11.7437,0.85121 -12.71852,-0.59097 z"
       id="path8"
       sodipodi:nodetypes="ccccccccccccccccccccccccccc" /><path
       style="fill:#47937c;fill-opacity:1;stroke-width:0.264583"
       d="m 57.097872,179.99739 -2.291239,0.88837 -0.256252,0.0926 -4.087559,-6.48922 -5.302201,-4.01822 -5.296648,-3.67133 -11.664366,-7.06734 -1.034846,-0.98199 -0.05896,-2.96629 3.122835,-2.27707 2.634892,-1.59395 1.040947,-4.11498 -3.944778,-12.88345 18.672396,-6.1735 20.124092,-3.04374 38.188525,1.35995 27.17711,-0.21945 18.38816,3.07501 9.04357,1.49671 -5.76252,7.19002 -3.61309,15.39137 -4.83954,2.95099 -2.98949,7.81252 -22.10538,3.08224 -16.80756,6.50591 -29.832456,2.56357 z"
       id="path9"
       sodipodi:nodetypes="ccccccccccccccccccccccccccc" /><path
       style="fill:#006e00;fill-opacity:1;stroke-width:0.264583"
       d="m 30.876668,137.90993 -2.388483,-0.71004 -1.030431,-0.30696 -3.674107,-1.09579 -6.238238,-3.36175 -4.706449,-4.7123 -5.1800177,-2.32691 -7.64240584,0.2809 L 0.37417734,86.060787 0.74835471,71.093692 43.404571,58.745841 l 23.198994,-7.109369 16.463803,-4.115951 16.463803,-1.122533 11.973669,0.748355 9.72861,0.748355 13.47039,2.245064 13.47038,1.49671 24.32153,-3.367596 35.17267,-4.864306 47.8947,3.741773 46.77217,9.354433 23.94733,2.99342 29.04552,12.207535 -0.33908,46.456459 -10.18464,-6.27917 -4.44336,0.0117 -6.71179,4.7006 -5.49153,-0.27387 -7.27604,3.91087 -3.12539,-2.08359 -6.01099,2.86907 -8.30958,-2.61276 -12.22045,5.47357 -10.00997,-8.84299 -7.10501,-0.17105 -6.00253,2.78146 -8.40923,2.61109 -5.35781,8.0698 -5.55625,0.33072 -7.9375,-3.43958 -13.03073,5.22552 -5.86359,-8.12425 -3.8869,0.27629 -4.4124,3.13223 -2.04284,-1.83271 -4.46485,-1.32291 -7.27604,1.5875 -4.66328,-3.14193 -4.2664,1.38906 -7.14375,3.24115 -3.73724,8.49974 -10.28568,0.33073 -8.09046,-3.30523 -0.17984,0.22945 -27.3699,-4.562 -28.04381,0.1965 -37.230642,-1.30962 -20.392662,2.99342 -18.334691,6.36102 z"
       id="path10"
       sodipodi:nodetypes="ccccccccccccccccccccccccccccccccccccccccccccccccccccccccccccc" /><circle
       style="fill:#ffd42a;stroke-width:0.264583"
       id="path11"
       cx="43.391666"
       cy="27.516665"
       r="22.754166" /><ellipse
       style="fill:#e3dbdb;stroke-width:0.198296"
       id="path12"
       cx="134.27325"
       cy="23.442083"
       rx="27.359037"
       ry="3.2984724" /><ellipse
       style="fill:#e3dbdb;stroke-width:0.208437"
       id="path13"
       cx="140.96104"
       cy="27.322639"
       rx="32.020206"
       ry="6.0148616" /><ellipse
       style="fill:#e3dbdb;stroke-width:0.266863"
       id="path14"
       cx="117.65533"
       cy="19.755556"
       rx="24.521803"
       ry="8.1491671" /><ellipse
       style="fill:#e3dbdb;stroke-width:0.24589"
       id="path15"
       cx="158.18718"
       cy="18.009306"
       rx="30.19627"
       ry="7.9551392" /><ellipse
       style="fill:#e3dbdb;stroke-width:0.238382"
       id="path16"
       cx="283.39752"
       cy="33.36002"
       rx="32.353943"
       ry="5.2691488" /><ellipse
       style="fill:#e3dbdb;stroke-width:0.238382"
       id="path17"
       cx="266.05579"
       cy="26.334486"
       rx="28.98913"
       ry="7.4646277" /><ellipse
       style="fill:#e3dbdb;stroke-width:0.238382"
       id="path18"
       cx="304.36282"
       cy="25.89539"
       rx="27.953804"
       ry="7.9037232" /></g></svg>
